<mxfile host="Electron" modified="2024-03-26T20:08:22.172Z" agent="Mozilla/5.0 (Windows NT 10.0; Win64; x64) AppleWebKit/537.36 (KHTML, like Gecko) draw.io/24.1.0 Chrome/120.0.6099.109 Electron/28.1.0 Safari/537.36" etag="wd5z8LLv53C6mZ73sU_h" version="24.1.0" type="device">
  <diagram name="PÃ¡gina-1" id="E-DP9fMv0TR5NF7smadX">
    <mxGraphModel dx="1420" dy="822" grid="1" gridSize="6" guides="1" tooltips="1" connect="1" arrows="1" fold="1" page="1" pageScale="1" pageWidth="944" pageHeight="190" math="1" shadow="0">
      <root>
        <mxCell id="0" />
        <mxCell id="1" parent="0" />
        <mxCell id="GvZRkOdXiB6BV7RRrDBN-7" value="" style="endArrow=block;html=1;rounded=0;strokeWidth=3;endFill=1;endSize=4;" parent="1" edge="1">
          <mxGeometry width="50" height="50" relative="1" as="geometry">
            <mxPoint x="24" y="126" as="sourcePoint" />
            <mxPoint x="924" y="126" as="targetPoint" />
          </mxGeometry>
        </mxCell>
        <mxCell id="GvZRkOdXiB6BV7RRrDBN-10" value="" style="endArrow=none;html=1;rounded=0;strokeWidth=2;" parent="1" edge="1">
          <mxGeometry width="50" height="50" relative="1" as="geometry">
            <mxPoint x="48" y="136" as="sourcePoint" />
            <mxPoint x="48" y="126" as="targetPoint" />
          </mxGeometry>
        </mxCell>
        <mxCell id="GvZRkOdXiB6BV7RRrDBN-15" value="" style="ellipse;whiteSpace=wrap;html=1;aspect=fixed;fillColor=#0000FF;" parent="1" vertex="1">
          <mxGeometry x="81" y="118" width="6" height="6" as="geometry" />
        </mxCell>
        <mxCell id="UwKL6i0-eS95Wib7501s-3" value="" style="endArrow=none;html=1;rounded=0;strokeWidth=2;" parent="1" edge="1">
          <mxGeometry width="50" height="50" relative="1" as="geometry">
            <mxPoint x="108" y="136" as="sourcePoint" />
            <mxPoint x="108" y="126" as="targetPoint" />
          </mxGeometry>
        </mxCell>
        <mxCell id="UwKL6i0-eS95Wib7501s-4" value="" style="endArrow=none;html=1;rounded=0;strokeWidth=2;" parent="1" edge="1">
          <mxGeometry width="50" height="50" relative="1" as="geometry">
            <mxPoint x="168" y="136" as="sourcePoint" />
            <mxPoint x="168" y="126" as="targetPoint" />
          </mxGeometry>
        </mxCell>
        <mxCell id="UwKL6i0-eS95Wib7501s-5" value="" style="endArrow=none;html=1;rounded=0;strokeWidth=2;" parent="1" edge="1">
          <mxGeometry width="50" height="50" relative="1" as="geometry">
            <mxPoint x="228" y="136" as="sourcePoint" />
            <mxPoint x="228" y="126" as="targetPoint" />
          </mxGeometry>
        </mxCell>
        <mxCell id="UwKL6i0-eS95Wib7501s-6" value="" style="endArrow=none;html=1;rounded=0;strokeWidth=2;" parent="1" edge="1">
          <mxGeometry width="50" height="50" relative="1" as="geometry">
            <mxPoint x="288" y="136" as="sourcePoint" />
            <mxPoint x="288" y="126" as="targetPoint" />
          </mxGeometry>
        </mxCell>
        <mxCell id="UwKL6i0-eS95Wib7501s-7" value="" style="endArrow=none;html=1;rounded=0;strokeWidth=2;" parent="1" edge="1">
          <mxGeometry width="50" height="50" relative="1" as="geometry">
            <mxPoint x="348" y="136" as="sourcePoint" />
            <mxPoint x="348" y="126" as="targetPoint" />
          </mxGeometry>
        </mxCell>
        <mxCell id="UwKL6i0-eS95Wib7501s-8" value="" style="endArrow=none;html=1;rounded=0;strokeWidth=2;" parent="1" edge="1">
          <mxGeometry width="50" height="50" relative="1" as="geometry">
            <mxPoint x="408" y="136" as="sourcePoint" />
            <mxPoint x="408" y="126" as="targetPoint" />
          </mxGeometry>
        </mxCell>
        <mxCell id="UwKL6i0-eS95Wib7501s-9" value="" style="endArrow=none;html=1;rounded=0;strokeWidth=2;" parent="1" edge="1">
          <mxGeometry width="50" height="50" relative="1" as="geometry">
            <mxPoint x="468" y="136" as="sourcePoint" />
            <mxPoint x="468" y="126" as="targetPoint" />
          </mxGeometry>
        </mxCell>
        <mxCell id="UwKL6i0-eS95Wib7501s-10" value="" style="endArrow=none;html=1;rounded=0;strokeWidth=2;" parent="1" edge="1">
          <mxGeometry width="50" height="50" relative="1" as="geometry">
            <mxPoint x="528" y="136" as="sourcePoint" />
            <mxPoint x="528" y="126" as="targetPoint" />
          </mxGeometry>
        </mxCell>
        <mxCell id="UwKL6i0-eS95Wib7501s-11" value="" style="endArrow=none;html=1;rounded=0;strokeWidth=2;" parent="1" edge="1">
          <mxGeometry width="50" height="50" relative="1" as="geometry">
            <mxPoint x="588" y="136" as="sourcePoint" />
            <mxPoint x="588" y="126" as="targetPoint" />
          </mxGeometry>
        </mxCell>
        <mxCell id="UwKL6i0-eS95Wib7501s-12" value="" style="endArrow=none;html=1;rounded=0;strokeWidth=2;" parent="1" edge="1">
          <mxGeometry width="50" height="50" relative="1" as="geometry">
            <mxPoint x="648" y="136" as="sourcePoint" />
            <mxPoint x="648" y="126" as="targetPoint" />
          </mxGeometry>
        </mxCell>
        <mxCell id="UwKL6i0-eS95Wib7501s-13" value="" style="endArrow=none;html=1;rounded=0;strokeWidth=2;" parent="1" edge="1">
          <mxGeometry width="50" height="50" relative="1" as="geometry">
            <mxPoint x="708" y="136" as="sourcePoint" />
            <mxPoint x="708" y="126" as="targetPoint" />
          </mxGeometry>
        </mxCell>
        <mxCell id="UwKL6i0-eS95Wib7501s-14" value="" style="endArrow=none;html=1;rounded=0;strokeWidth=2;" parent="1" edge="1">
          <mxGeometry width="50" height="50" relative="1" as="geometry">
            <mxPoint x="768" y="136" as="sourcePoint" />
            <mxPoint x="768" y="126" as="targetPoint" />
          </mxGeometry>
        </mxCell>
        <mxCell id="UwKL6i0-eS95Wib7501s-15" value="" style="endArrow=none;html=1;rounded=0;strokeWidth=2;" parent="1" edge="1">
          <mxGeometry width="50" height="50" relative="1" as="geometry">
            <mxPoint x="828" y="136" as="sourcePoint" />
            <mxPoint x="828" y="126" as="targetPoint" />
          </mxGeometry>
        </mxCell>
        <mxCell id="UwKL6i0-eS95Wib7501s-16" value="" style="endArrow=none;html=1;rounded=0;strokeWidth=2;" parent="1" edge="1">
          <mxGeometry width="50" height="50" relative="1" as="geometry">
            <mxPoint x="888" y="136" as="sourcePoint" />
            <mxPoint x="888" y="126" as="targetPoint" />
          </mxGeometry>
        </mxCell>
        <mxCell id="UwKL6i0-eS95Wib7501s-17" value="&lt;font face=&quot;SFMono-Regular, Menlo, Monaco, Consolas, Liberation Mono, Courier New, monospace&quot;&gt;\(7\)&lt;/font&gt;" style="text;whiteSpace=wrap;html=1;align=center;verticalAlign=middle;fontColor=#000000;labelBackgroundColor=none;fontSize=20;" parent="1" vertex="1">
          <mxGeometry x="33" y="142" width="30" height="20" as="geometry" />
        </mxCell>
        <mxCell id="UwKL6i0-eS95Wib7501s-18" value="&lt;font face=&quot;SFMono-Regular, Menlo, Monaco, Consolas, Liberation Mono, Courier New, monospace&quot;&gt;\(8\)&lt;/font&gt;" style="text;whiteSpace=wrap;html=1;align=center;verticalAlign=middle;fontColor=#000000;labelBackgroundColor=none;fontSize=20;" parent="1" vertex="1">
          <mxGeometry x="93" y="142" width="30" height="20" as="geometry" />
        </mxCell>
        <mxCell id="UwKL6i0-eS95Wib7501s-19" value="&lt;font face=&quot;SFMono-Regular, Menlo, Monaco, Consolas, Liberation Mono, Courier New, monospace&quot;&gt;\(9\)&lt;/font&gt;" style="text;whiteSpace=wrap;html=1;align=center;verticalAlign=middle;fontColor=#000000;labelBackgroundColor=none;fontSize=20;" parent="1" vertex="1">
          <mxGeometry x="153" y="142" width="30" height="20" as="geometry" />
        </mxCell>
        <mxCell id="UwKL6i0-eS95Wib7501s-20" value="&lt;font face=&quot;SFMono-Regular, Menlo, Monaco, Consolas, Liberation Mono, Courier New, monospace&quot;&gt;\(10\)&lt;/font&gt;" style="text;whiteSpace=wrap;html=1;align=center;verticalAlign=middle;fontColor=#000000;labelBackgroundColor=none;fontSize=20;" parent="1" vertex="1">
          <mxGeometry x="213" y="142" width="30" height="20" as="geometry" />
        </mxCell>
        <mxCell id="UwKL6i0-eS95Wib7501s-21" value="&lt;font face=&quot;SFMono-Regular, Menlo, Monaco, Consolas, Liberation Mono, Courier New, monospace&quot;&gt;\(11\)&lt;/font&gt;" style="text;whiteSpace=wrap;html=1;align=center;verticalAlign=middle;fontColor=#000000;labelBackgroundColor=none;fontSize=20;" parent="1" vertex="1">
          <mxGeometry x="273" y="142" width="30" height="20" as="geometry" />
        </mxCell>
        <mxCell id="UwKL6i0-eS95Wib7501s-22" value="&lt;font face=&quot;SFMono-Regular, Menlo, Monaco, Consolas, Liberation Mono, Courier New, monospace&quot;&gt;\(12\)&lt;/font&gt;" style="text;whiteSpace=wrap;html=1;align=center;verticalAlign=middle;fontColor=#000000;labelBackgroundColor=none;fontSize=20;" parent="1" vertex="1">
          <mxGeometry x="333" y="142" width="30" height="20" as="geometry" />
        </mxCell>
        <mxCell id="UwKL6i0-eS95Wib7501s-23" value="&lt;font face=&quot;SFMono-Regular, Menlo, Monaco, Consolas, Liberation Mono, Courier New, monospace&quot;&gt;\(13\)&lt;/font&gt;" style="text;whiteSpace=wrap;html=1;align=center;verticalAlign=middle;fontColor=#000000;labelBackgroundColor=none;fontSize=20;" parent="1" vertex="1">
          <mxGeometry x="393" y="142" width="30" height="20" as="geometry" />
        </mxCell>
        <mxCell id="UwKL6i0-eS95Wib7501s-24" value="&lt;font face=&quot;SFMono-Regular, Menlo, Monaco, Consolas, Liberation Mono, Courier New, monospace&quot;&gt;\(14\)&lt;/font&gt;" style="text;whiteSpace=wrap;html=1;align=center;verticalAlign=middle;fontColor=#000000;labelBackgroundColor=none;fontSize=20;" parent="1" vertex="1">
          <mxGeometry x="453" y="142" width="30" height="20" as="geometry" />
        </mxCell>
        <mxCell id="UwKL6i0-eS95Wib7501s-25" value="&lt;font face=&quot;SFMono-Regular, Menlo, Monaco, Consolas, Liberation Mono, Courier New, monospace&quot;&gt;\(15\)&lt;/font&gt;" style="text;whiteSpace=wrap;html=1;align=center;verticalAlign=middle;fontColor=#000000;labelBackgroundColor=none;fontSize=20;" parent="1" vertex="1">
          <mxGeometry x="513" y="142" width="30" height="20" as="geometry" />
        </mxCell>
        <mxCell id="UwKL6i0-eS95Wib7501s-26" value="&lt;font face=&quot;SFMono-Regular, Menlo, Monaco, Consolas, Liberation Mono, Courier New, monospace&quot;&gt;\(16\)&lt;/font&gt;" style="text;whiteSpace=wrap;html=1;align=center;verticalAlign=middle;fontColor=#000000;labelBackgroundColor=none;fontSize=20;" parent="1" vertex="1">
          <mxGeometry x="573" y="142" width="30" height="20" as="geometry" />
        </mxCell>
        <mxCell id="UwKL6i0-eS95Wib7501s-27" value="&lt;font face=&quot;SFMono-Regular, Menlo, Monaco, Consolas, Liberation Mono, Courier New, monospace&quot;&gt;\(17\)&lt;/font&gt;" style="text;whiteSpace=wrap;html=1;align=center;verticalAlign=middle;fontColor=#000000;labelBackgroundColor=none;fontSize=20;" parent="1" vertex="1">
          <mxGeometry x="633" y="142" width="30" height="20" as="geometry" />
        </mxCell>
        <mxCell id="UwKL6i0-eS95Wib7501s-28" value="&lt;font face=&quot;SFMono-Regular, Menlo, Monaco, Consolas, Liberation Mono, Courier New, monospace&quot;&gt;\(18\)&lt;/font&gt;" style="text;whiteSpace=wrap;html=1;align=center;verticalAlign=middle;fontColor=#000000;labelBackgroundColor=none;fontSize=20;" parent="1" vertex="1">
          <mxGeometry x="693" y="142" width="30" height="20" as="geometry" />
        </mxCell>
        <mxCell id="UwKL6i0-eS95Wib7501s-29" value="&lt;font face=&quot;SFMono-Regular, Menlo, Monaco, Consolas, Liberation Mono, Courier New, monospace&quot;&gt;\(19\)&lt;/font&gt;" style="text;whiteSpace=wrap;html=1;align=center;verticalAlign=middle;fontColor=#000000;labelBackgroundColor=none;fontSize=20;" parent="1" vertex="1">
          <mxGeometry x="753" y="142" width="30" height="20" as="geometry" />
        </mxCell>
        <mxCell id="UwKL6i0-eS95Wib7501s-30" value="&lt;font face=&quot;SFMono-Regular, Menlo, Monaco, Consolas, Liberation Mono, Courier New, monospace&quot;&gt;\(20\)&lt;/font&gt;" style="text;whiteSpace=wrap;html=1;align=center;verticalAlign=middle;fontColor=#000000;labelBackgroundColor=none;fontSize=20;" parent="1" vertex="1">
          <mxGeometry x="813" y="142" width="30" height="20" as="geometry" />
        </mxCell>
        <mxCell id="UwKL6i0-eS95Wib7501s-31" value="&lt;font face=&quot;SFMono-Regular, Menlo, Monaco, Consolas, Liberation Mono, Courier New, monospace&quot;&gt;\(21\)&lt;/font&gt;" style="text;whiteSpace=wrap;html=1;align=center;verticalAlign=middle;fontColor=#000000;labelBackgroundColor=none;fontSize=20;" parent="1" vertex="1">
          <mxGeometry x="873" y="142" width="30" height="20" as="geometry" />
        </mxCell>
        <mxCell id="UwKL6i0-eS95Wib7501s-32" value="" style="ellipse;whiteSpace=wrap;html=1;aspect=fixed;fillColor=#0000FF;" parent="1" vertex="1">
          <mxGeometry x="123" y="118" width="6" height="6" as="geometry" />
        </mxCell>
        <mxCell id="UwKL6i0-eS95Wib7501s-35" value="" style="ellipse;whiteSpace=wrap;html=1;aspect=fixed;fillColor=#0000FF;" parent="1" vertex="1">
          <mxGeometry x="183" y="118" width="6" height="6" as="geometry" />
        </mxCell>
        <mxCell id="UwKL6i0-eS95Wib7501s-36" value="" style="ellipse;whiteSpace=wrap;html=1;aspect=fixed;fillColor=#0000FF;" parent="1" vertex="1">
          <mxGeometry x="189" y="118" width="6" height="6" as="geometry" />
        </mxCell>
        <mxCell id="UwKL6i0-eS95Wib7501s-37" value="" style="ellipse;whiteSpace=wrap;html=1;aspect=fixed;fillColor=#0000FF;" parent="1" vertex="1">
          <mxGeometry x="189" y="112" width="6" height="6" as="geometry" />
        </mxCell>
        <mxCell id="UwKL6i0-eS95Wib7501s-38" value="" style="ellipse;whiteSpace=wrap;html=1;aspect=fixed;fillColor=#0000FF;" parent="1" vertex="1">
          <mxGeometry x="207" y="118" width="6" height="6" as="geometry" />
        </mxCell>
        <mxCell id="UwKL6i0-eS95Wib7501s-39" value="" style="ellipse;whiteSpace=wrap;html=1;aspect=fixed;fillColor=#0000FF;" parent="1" vertex="1">
          <mxGeometry x="249" y="118" width="6" height="6" as="geometry" />
        </mxCell>
        <mxCell id="UwKL6i0-eS95Wib7501s-40" value="" style="ellipse;whiteSpace=wrap;html=1;aspect=fixed;fillColor=#0000FF;" parent="1" vertex="1">
          <mxGeometry x="315" y="118" width="6" height="6" as="geometry" />
        </mxCell>
        <mxCell id="UwKL6i0-eS95Wib7501s-41" value="" style="ellipse;whiteSpace=wrap;html=1;aspect=fixed;fillColor=#0000FF;" parent="1" vertex="1">
          <mxGeometry x="339" y="118" width="6" height="6" as="geometry" />
        </mxCell>
        <mxCell id="UwKL6i0-eS95Wib7501s-42" value="" style="ellipse;whiteSpace=wrap;html=1;aspect=fixed;fillColor=#0000FF;" parent="1" vertex="1">
          <mxGeometry x="537" y="118" width="6" height="6" as="geometry" />
        </mxCell>
        <mxCell id="UwKL6i0-eS95Wib7501s-43" value="" style="ellipse;whiteSpace=wrap;html=1;aspect=fixed;fillColor=#0000FF;" parent="1" vertex="1">
          <mxGeometry x="597" y="118" width="6" height="6" as="geometry" />
        </mxCell>
        <mxCell id="UwKL6i0-eS95Wib7501s-44" value="" style="ellipse;whiteSpace=wrap;html=1;aspect=fixed;fillColor=#0000FF;" parent="1" vertex="1">
          <mxGeometry x="849" y="118" width="6" height="6" as="geometry" />
        </mxCell>
        <mxCell id="UwKL6i0-eS95Wib7501s-45" value="" style="shape=flexArrow;endArrow=classic;html=1;rounded=0;endWidth=7.808641975308642;endSize=4.111111111111112;width=3.888888888888889;fillColor=#0000FF;" parent="1" edge="1">
          <mxGeometry width="50" height="50" relative="1" as="geometry">
            <mxPoint x="231" y="49" as="sourcePoint" />
            <mxPoint x="231" y="123" as="targetPoint" />
          </mxGeometry>
        </mxCell>
        <mxCell id="UwKL6i0-eS95Wib7501s-46" value="&lt;font style=&quot;font-size: 22px;&quot; face=&quot;SFMono-Regular, Menlo, Monaco, Consolas, Liberation Mono, Courier New, monospace&quot;&gt;\(\tilde{x}=10\text{,}05\)&lt;/font&gt;" style="text;whiteSpace=wrap;html=1;align=center;verticalAlign=middle;fontColor=#0000FF;labelBackgroundColor=none;fontSize=22;" parent="1" vertex="1">
          <mxGeometry x="169" y="26" width="30" height="20" as="geometry" />
        </mxCell>
        <mxCell id="UwKL6i0-eS95Wib7501s-47" value="" style="shape=flexArrow;endArrow=classic;html=1;rounded=0;endWidth=7.808641975308642;endSize=4.111111111111112;width=3.888888888888889;fillColor=#FF0000;" parent="1" edge="1">
          <mxGeometry width="50" height="50" relative="1" as="geometry">
            <mxPoint x="325" y="49" as="sourcePoint" />
            <mxPoint x="325" y="123" as="targetPoint" />
          </mxGeometry>
        </mxCell>
        <mxCell id="UwKL6i0-eS95Wib7501s-48" value="&lt;font face=&quot;SFMono-Regular, Menlo, Monaco, Consolas, Liberation Mono, Courier New, monospace&quot; style=&quot;font-size: 22px;&quot;&gt;\(\bar{x}=11\text{,}61\)&lt;/font&gt;" style="text;whiteSpace=wrap;html=1;align=center;verticalAlign=middle;fontColor=#FF0000;labelBackgroundColor=none;fontSize=22;" parent="1" vertex="1">
          <mxGeometry x="358" y="26" width="30" height="20" as="geometry" />
        </mxCell>
      </root>
    </mxGraphModel>
  </diagram>
</mxfile>
